M48
INCH,TZ
T1C0.028
T2C0.031
%
G90
G05
T1
X43000Y-45100
X43000Y-47900
X43000Y-54930
X43000Y-57730
X52830Y-45100
X52830Y-47900
X52830Y-54940
X52830Y-57740
T2
X41400Y-41300
X41400Y-44300
X41400Y-51130
X41400Y-54130
X42400Y-41300
X42400Y-44300
X42400Y-51130
X42400Y-54130
X43400Y-41300
X43400Y-44300
X43400Y-51130
X43400Y-54130
X44400Y-41300
X44400Y-44300
X44400Y-51130
X44400Y-54130
X51230Y-41300
X51230Y-44300
X51230Y-51140
X51230Y-54140
X52230Y-41300
X52230Y-44300
X52230Y-51140
X52230Y-54140
X53230Y-41300
X53230Y-44300
X53230Y-51140
X53230Y-54140
X54230Y-41300
X54230Y-44300
X54230Y-51140
X54230Y-54140
T0
M30
